<svg xmlns="http://www.w3.org/2000/svg" viewBox="0 0 997.334 198.205"><path d="M337.391,62.077h12.4l16.8,61.339,18.135-61.339h12.4l17.736,61.472L431.4,62.077h12L420.6,135.15H408.065l-17.6-58.005-17.6,58.005H360.327Z" transform="translate(0 0)" fill="#fff"/><path d="M487.275,136.351c-20.669,0-36.4-14.668-36.4-37.871,0-23.069,16.268-37.6,36.937-37.6,20.8,0,36.937,14.535,36.937,37.6C524.745,121.683,508.077,136.351,487.275,136.351Zm0-10.668c12.668,0,25.069-8.667,25.069-27.2,0-18.4-12.135-27.069-24.669-27.069-12.8,0-24.4,8.667-24.4,27.069C463.272,117.016,474.607,125.683,487.275,125.683Z" transform="translate(0 0)" fill="#fff"/><path d="M572.619,136.351c-20.669,0-36.4-14.668-36.4-37.871,0-23.069,16.268-37.6,36.937-37.6,20.8,0,36.936,14.535,36.936,37.6C610.088,121.683,593.42,136.351,572.619,136.351Zm0-10.668c12.668,0,25.069-8.667,25.069-27.2,0-18.4-12.135-27.069-24.67-27.069-12.8,0-24.4,8.667-24.4,27.069C548.616,117.016,559.951,125.683,572.619,125.683Z" transform="translate(0 0)" fill="#fff"/><path d="M651.961,136.351c-17.068,0-29.069-9.334-29.869-22.669h12.534c.667,7.067,6.935,12.4,17.2,12.4,9.6,0,14.935-4.8,14.935-10.8,0-16.268-43.2-6.8-43.2-34,0-11.2,10.534-20.4,26.8-20.4,16.135,0,26.8,8.668,27.6,22.936H665.829c-.533-7.334-6.134-12.668-15.868-12.668-8.935,0-14.268,4.267-14.268,10.134,0,17.335,42.4,7.868,42.938,34C678.631,127.283,668.1,136.351,651.961,136.351Z" transform="translate(0 0)" fill="#fff"/><path d="M801.177,93.813c0-14.935-8-22.536-20-22.536-12.269,0-20.669,7.868-20.669,23.6v40.27h-12V93.813c0-14.935-8-22.536-20-22.536-12.269,0-20.669,7.868-20.669,23.6v40.27H695.7V62.077h12.135V72.611c4.8-7.734,13.468-11.868,23.068-11.868,12,0,22,5.334,26.8,16.268,4.268-10.534,14.669-16.268,25.869-16.268,16.669,0,29.6,10.4,29.6,31.337v43.07h-12Z" transform="translate(0 0)" fill="#fff"/><path d="M863.187,60.876c13.6,0,22.935,6.935,27.2,14.535V62.077h12.268V135.15H890.389v-13.6c-4.4,7.867-13.868,14.8-27.336,14.8-19.469,0-34.536-15.335-34.536-38C828.517,75.544,843.584,60.876,863.187,60.876Zm2.4,10.535c-13.335,0-24.67,9.734-24.67,26.936s11.335,27.336,24.67,27.336,24.8-10,24.8-27.2C890.389,81.545,878.921,71.411,865.587,71.411Z" transform="translate(0 0)" fill="#fff"/><path d="M962.664,60.876c19.6,0,34.67,14.668,34.67,37.471,0,22.669-15.068,38-34.67,38-13.335,0-22.8-7.2-27.336-14.668V169.82H923.193V62.077h12.135V75.544C939.729,67.811,949.329,60.876,962.664,60.876Zm-2.533,10.535c-13.2,0-24.8,10.134-24.8,27.069,0,17.2,11.6,27.2,24.8,27.2,13.468,0,24.8-10.134,24.8-27.336S973.6,71.411,960.131,71.411Z" transform="translate(0 0)" fill="#fff"/><rect x="109.924" width="42.835" height="44.255" fill="#fff" opacity="0.66"/><rect x="87.088" y="44.255" width="65.671" height="42.835" fill="#fff" opacity="0.75"/><rect x="44.253" y="44.255" width="42.835" height="65.673" fill="#fff" opacity="0.85"/><rect y="109.928" width="87.088" height="42.835" fill="#fff"/><rect x="218.836" y="45.441" width="44.257" height="42.835" fill="#fff" opacity="0.66"/><rect x="176.001" y="45.441" width="42.835" height="65.675" fill="#fff" opacity="0.75"/><rect x="153.165" y="111.114" width="65.671" height="42.835" fill="#fff" opacity="0.85"/><rect x="110.33" y="111.117" width="42.835" height="87.088" fill="#fff"/></svg>